<?xml version="1.0" encoding="UTF-8"?>
<svg xmlns="http://www.w3.org/2000/svg" version="1.1" width="150" height="150" viewBox="0 0 150 150"><rect x="0" y="0" width="150" height="150" fill="#ffffff"/><g transform="scale(4.054)"><g transform="translate(0,0)"><path fill-rule="evenodd" d="M10 0L10 2L11 2L11 0ZM12 0L12 1L13 1L13 2L12 2L12 4L13 4L13 3L14 3L14 4L15 4L15 5L17 5L17 4L18 4L18 7L19 7L19 8L17 8L17 6L16 6L16 9L12 9L12 7L13 7L13 5L11 5L11 6L10 6L10 4L11 4L11 3L8 3L8 4L9 4L9 5L8 5L8 7L9 7L9 8L6 8L6 9L5 9L5 8L0 8L0 9L2 9L2 10L1 10L1 11L2 11L2 10L3 10L3 9L4 9L4 11L3 11L3 12L4 12L4 14L3 14L3 13L0 13L0 17L1 17L1 18L0 18L0 19L1 19L1 20L0 20L0 23L1 23L1 21L3 21L3 23L2 23L2 24L3 24L3 25L0 25L0 29L1 29L1 26L3 26L3 27L2 27L2 29L4 29L4 28L3 28L3 27L5 27L5 29L7 29L7 28L8 28L8 31L10 31L10 32L8 32L8 37L9 37L9 35L10 35L10 37L11 37L11 33L12 33L12 34L13 34L13 35L12 35L12 37L13 37L13 36L14 36L14 37L19 37L19 36L20 36L20 35L21 35L21 36L22 36L22 37L23 37L23 36L22 36L22 34L24 34L24 35L26 35L26 36L25 36L25 37L28 37L28 36L29 36L29 35L30 35L30 36L32 36L32 34L33 34L33 35L34 35L34 34L35 34L35 35L36 35L36 36L33 36L33 37L37 37L37 32L36 32L36 33L35 33L35 32L33 32L33 30L34 30L34 31L37 31L37 30L34 30L34 29L35 29L35 28L34 28L34 29L33 29L33 26L32 26L32 25L35 25L35 27L36 27L36 28L37 28L37 26L36 26L36 25L37 25L37 22L36 22L36 21L37 21L37 18L36 18L36 17L37 17L37 14L36 14L36 13L37 13L37 12L36 12L36 11L37 11L37 10L36 10L36 8L35 8L35 9L34 9L34 8L33 8L33 10L32 10L32 8L31 8L31 10L32 10L32 11L31 11L31 12L30 12L30 11L29 11L29 10L27 10L27 11L26 11L26 12L25 12L25 11L24 11L24 13L19 13L19 11L18 11L18 10L16 10L16 9L19 9L19 10L20 10L20 9L21 9L21 10L22 10L22 11L20 11L20 12L23 12L23 10L24 10L24 9L25 9L25 10L26 10L26 9L27 9L27 8L23 8L23 9L21 9L21 8L22 8L22 7L23 7L23 6L22 6L22 7L21 7L21 6L20 6L20 7L19 7L19 5L24 5L24 7L25 7L25 6L26 6L26 7L27 7L27 6L28 6L28 8L29 8L29 9L30 9L30 8L29 8L29 6L28 6L28 5L29 5L29 4L28 4L28 3L29 3L29 0L28 0L28 1L26 1L26 0L18 0L18 1L20 1L20 2L19 2L19 3L20 3L20 2L21 2L21 3L23 3L23 4L18 4L18 3L17 3L17 4L16 4L16 2L17 2L17 1L16 1L16 0ZM8 1L8 2L9 2L9 1ZM22 1L22 2L24 2L24 3L26 3L26 5L28 5L28 4L27 4L27 3L28 3L28 2L27 2L27 3L26 3L26 2L25 2L25 1ZM14 2L14 3L15 3L15 2ZM9 6L9 7L10 7L10 6ZM11 6L11 7L12 7L12 6ZM14 6L14 8L15 8L15 6ZM20 7L20 8L19 8L19 9L20 9L20 8L21 8L21 7ZM10 8L10 9L11 9L11 13L10 13L10 14L9 14L9 11L10 11L10 10L9 10L9 11L8 11L8 10L7 10L7 9L6 9L6 10L7 10L7 11L6 11L6 12L5 12L5 11L4 11L4 12L5 12L5 13L6 13L6 14L7 14L7 15L5 15L5 16L4 16L4 17L2 17L2 16L3 16L3 15L2 15L2 16L1 16L1 17L2 17L2 19L4 19L4 20L5 20L5 21L6 21L6 22L5 22L5 23L4 23L4 25L6 25L6 26L5 26L5 27L6 27L6 28L7 28L7 27L6 27L6 26L7 26L7 25L6 25L6 24L9 24L9 23L10 23L10 22L13 22L13 23L12 23L12 25L9 25L9 26L8 26L8 28L9 28L9 29L10 29L10 28L11 28L11 30L13 30L13 31L12 31L12 33L15 33L15 34L16 34L16 35L14 35L14 36L16 36L16 35L17 35L17 36L19 36L19 35L20 35L20 34L22 34L22 33L24 33L24 34L26 34L26 35L28 35L28 34L26 34L26 33L24 33L24 31L25 31L25 32L26 32L26 29L24 29L24 30L23 30L23 32L21 32L21 29L23 29L23 27L25 27L25 28L27 28L27 26L28 26L28 28L29 28L29 27L30 27L30 26L31 26L31 27L32 27L32 26L31 26L31 25L32 25L32 24L36 24L36 23L33 23L33 21L34 21L34 22L35 22L35 21L34 21L34 20L36 20L36 19L34 19L34 17L32 17L32 15L31 15L31 17L29 17L29 18L28 18L28 17L27 17L27 16L29 16L29 15L30 15L30 14L33 14L33 15L34 15L34 16L35 16L35 17L36 17L36 15L34 15L34 13L32 13L32 12L31 12L31 13L29 13L29 11L28 11L28 12L27 12L27 13L24 13L24 14L22 14L22 15L24 15L24 16L23 16L23 17L22 17L22 16L21 16L21 14L19 14L19 13L17 13L17 12L18 12L18 11L16 11L16 13L17 13L17 14L15 14L15 13L14 13L14 12L15 12L15 11L14 11L14 12L13 12L13 13L12 13L12 11L13 11L13 10L12 10L12 9L11 9L11 8ZM35 10L35 11L34 11L34 12L35 12L35 13L36 13L36 12L35 12L35 11L36 11L36 10ZM6 12L6 13L8 13L8 12ZM28 13L28 14L26 14L26 15L28 15L28 14L29 14L29 13ZM8 14L8 15L9 15L9 14ZM10 14L10 15L11 15L11 17L10 17L10 19L11 19L11 17L12 17L12 18L13 18L13 19L12 19L12 21L13 21L13 20L14 20L14 21L19 21L19 22L20 22L20 23L18 23L18 22L15 22L15 23L14 23L14 24L15 24L15 25L12 25L12 26L13 26L13 27L12 27L12 29L13 29L13 28L14 28L14 29L16 29L16 30L15 30L15 31L14 31L14 32L15 32L15 33L17 33L17 34L18 34L18 35L19 35L19 34L20 34L20 33L21 33L21 32L20 32L20 33L19 33L19 31L18 31L18 30L20 30L20 29L21 29L21 28L22 28L22 27L18 27L18 28L17 28L17 29L16 29L16 28L14 28L14 27L17 27L17 25L19 25L19 26L20 26L20 25L21 25L21 26L24 26L24 25L26 25L26 26L27 26L27 23L28 23L28 24L29 24L29 25L28 25L28 26L29 26L29 25L31 25L31 24L32 24L32 23L31 23L31 22L32 22L32 21L33 21L33 20L32 20L32 21L31 21L31 19L32 19L32 17L31 17L31 19L30 19L30 18L29 18L29 19L28 19L28 18L26 18L26 16L25 16L25 19L26 19L26 20L24 20L24 19L23 19L23 18L24 18L24 17L23 17L23 18L22 18L22 17L21 17L21 16L19 16L19 17L18 17L18 16L17 16L17 15L16 15L16 16L17 16L17 17L18 17L18 18L16 18L16 17L12 17L12 15L13 15L13 14ZM18 14L18 15L19 15L19 14ZM24 14L24 15L25 15L25 14ZM14 15L14 16L15 16L15 15ZM6 16L6 17L4 17L4 18L5 18L5 19L7 19L7 20L6 20L6 21L9 21L9 22L10 22L10 20L8 20L8 19L7 19L7 18L6 18L6 17L8 17L8 16ZM20 17L20 18L19 18L19 19L20 19L20 20L19 20L19 21L23 21L23 19L22 19L22 20L21 20L21 19L20 19L20 18L21 18L21 17ZM14 19L14 20L18 20L18 19ZM29 19L29 20L27 20L27 21L25 21L25 22L23 22L23 24L21 24L21 25L24 25L24 23L25 23L25 24L26 24L26 22L28 22L28 21L29 21L29 24L31 24L31 23L30 23L30 22L31 22L31 21L29 21L29 20L30 20L30 19ZM6 22L6 23L7 23L7 22ZM21 22L21 23L22 23L22 22ZM15 23L15 24L16 24L16 25L15 25L15 26L16 26L16 25L17 25L17 24L18 24L18 23ZM19 24L19 25L20 25L20 24ZM10 26L10 27L9 27L9 28L10 28L10 27L11 27L11 26ZM18 28L18 29L17 29L17 30L16 30L16 31L15 31L15 32L18 32L18 31L17 31L17 30L18 30L18 29L20 29L20 28ZM27 29L27 32L28 32L28 29ZM29 29L29 32L32 32L32 29ZM30 30L30 31L31 31L31 30ZM18 33L18 34L19 34L19 33ZM31 33L31 34L30 34L30 35L31 35L31 34L32 34L32 33ZM33 33L33 34L34 34L34 33ZM0 0L0 7L7 7L7 0ZM1 1L1 6L6 6L6 1ZM2 2L2 5L5 5L5 2ZM30 0L30 7L37 7L37 0ZM31 1L31 6L36 6L36 1ZM32 2L32 5L35 5L35 2ZM0 30L0 37L7 37L7 30ZM1 31L1 36L6 36L6 31ZM2 32L2 35L5 35L5 32Z" fill="#000000"/></g></g></svg>
